<svg viewBox="0 0 150 63" xmlns="http://www.w3.org/2000/svg" xml:space="preserve" style="fill-rule:evenodd;clip-rule:evenodd;stroke-linejoin:round;stroke-miterlimit:2"><path d="M.781 119.071c-1.614 1.131 1.133 14.385 4.366 15.514 3.233 1.132 3.554 6.304 25.375 2.102 21.819-4.203 41.375-20.527 52.69-28.284 11.311-7.758 27.639-6.628 39.921-4.204 12.283 2.425 12.607 5.495 17.131 8.89 4.527 3.396 7.921 2.102 9.538 1.293 1.615-.808 8.887 2.749 18.585 8.52 9.697 5.77 19.557 10.554 22.466 12.17 2.909 1.615 4.041 3.554 6.95 8.08 2.909 4.525 10.506 16.489 16.487 26.185 5.98 9.697 8.887 13.733 15.838 17.295 6.95 3.554 31.839 1.611 54.79-.166 22.952-1.777 48.165-8.727 54.952-10.504 6.791-1.777 8.568-.645 10.99 1.453 2.426 2.101 12.446 5.497 18.265 8.244 5.817 2.75 27.153 2.75 31.518 1.939 4.361-.807 3.232.969 1.614 2.106-1.614 1.128-10.505 12.28-12.766 14.702-2.264 2.426-3.396 1.943-4.529 2.267-1.129.321-6.787 3.713-9.371 7.109-2.589 3.395-.324 5.817.808 7.111 1.132 1.295.646 1.457-.487 4.203-1.13 2.747 2.911 1.294 6.466-.166 3.556-1.452 4.204-4.361 6.625-7.915 2.426-3.558-.482-4.523-1.129-6.305-.647-1.777 2.099-3.071 4.688-5.172 2.584-2.102 10.021-12.281 12.12-13.9 2.102-1.618 1.134 0 1.134 0s1.13 1.295 2.584 1.94c1.454.649 2.909-.321 4.203-.97 1.292-.645 3.554-2.264 4.041-2.264.483 0-.808 2.264-.808 2.264s-1.941 2.26-3.073 3.395c-1.13 1.132 3.234 3.397 8.244 3.397s3.878.158 7.435-2.102c3.556-2.264-1.777-2.747-2.264-2.913-.483-.158 0-1.294 3.071-1.939 1.415-.297 1.731-.938 1.662-1.544.709 1.393 1.85 3.598 2.864 5.427 1.616 2.904 1.778 6.137 2.424 8.077a4.41 4.41 0 0 1-.484 3.879c-.324.486.97 5.013 2.262 6.467 1.293 1.452.97 1.131 2.749 2.908 1.777 1.781.646 1.615.646 2.747 0 1.136.324.811 1.131 1.781.807.965-.647 2.426-1.131 3.066-.486.65-.324 2.427-1.455 4.691-1.132 2.264-1.779-1.295-2.909-.97-1.13.32-.163 4.04.807 6.142.97 2.101 5.657 6.142 8.082 7.92 2.424 1.776 7.435 2.425 10.505 1.452 3.071-.97 6.465-3.23 8.244-7.433 1.777-4.203-3.233-13.416-4.527-15.513-1.292-2.102-1.94-6.143-1.94-6.143s4.203.321 5.657-4.045c1.456-4.361-2.423-9.533-3.393-11.148-.97-1.619-5.173-.649-5.817-.974-.648-.32-.97-2.746-1.458-5.655-.482-2.91-2.421-8.565-2.421-8.565s1.615-.166 6.95-1.294c4.111-.871 3.997-1.072 8.846-2.454 2.692 1.211 5.634 2.043 7.759 2.549 5.965 1.425 12.191 1.92 15.143 1.211 1.563-.372 3.469-1.634 5.513-3.475 4.012 4.797 8.234 9.06 11.706 10.797 1.779.891 4.121 1.325 6.847 1.325 4.782 0 10.761-1.337 17.014-3.921a61.728 61.728 0 0 0 11.264-6.068c2.921 1.556 7.024 4.853 8.381 6.59 1.873 2.389 4.198 8.113 5.364 10.563 1.167 2.454 3.767 1.965 4.22 1.407.452-.552.789.267 2.151.188 1.359-.077 4.671-.857 7.753-6.898 3.084-6.041 2.165-13.123 2.189-13.761.022-.639 8.394.677 9.763.453 1.37-.218 4.16-2.056 3.475-4.701-.682-2.64-7.262-3.956-12.578-4.134-5.314-.188-7.807-2.666-12.315-2.523-2.649.089-4.073.194-5.707.089.059-.091.13-.18.187-.273 3.687-6.036 4.942-11.09 3.725-15.012-1.142-3.684-4.132-5.429-5.935-6.296.325-.336.641-.649.97-.887 1.614-1.187 2.046-6.898 2.154-9.269.108-2.37-1.078-3.451-1.94-3.878-.861-.431-3.447-1.401-4.311-1.725-.862-.323-1.507-.648-1.939-1.188-.431-.534.647-.968.97-1.508.325-.538-.752-1.399-1.185-2.259-.429-.864 1.292-.756 2.804-.972 1.508-.216.43.864.97 1.403.538.536 1.183.645 1.83.645s1.509-1.292 2.909-1.616c1.4-.324 1.4-2.049 1.4-3.881 0-1.832 3.395-7.109 4.041-9.373.648-2.261-.809-4.04-1.616-5.657-.808-1.615-1.132-3.88-2.262-4.686-1.132-.809-1.132-1.456-1.293-3.232-.162-1.779-.81-2.587-2.425-4.203-1.615-1.617.485-1.293 0-3.717-.485-2.426-4.526-7.274-12.445-12.932-7.922-5.656-10.993-4.685-17.295-4.363-6.302.325-4.363 3.395-4.363 3.395s-1.455 1.131-2.585 1.453c-1.132.325-1.939-.806-3.073-1.937-1.13-1.134-2.746.484-3.394.806-.549.276-1.452.903-1.606 1.081-.052-.409-1.315-3.297-1.465-4.798-.16-1.616-.807-4.364-.807-5.172 0-.807.647-.807 1.132-1.454.485-.646 1.13-4.688 1.13-7.139 0-2.454-7.272-1.913-9.212-1.913-1.939 0-1.294 1.293-1.402 1.913-.11.619-.374 3.907-.052 5.684.322 1.778-.97 1.293-.97 1.293s-3.233.485-4.041.485c-.808 0-1.292-1.293-1.292-1.293s-1.781-.161-3.557 0c-1.778.162-1.13 1.293-1.13 1.293l-2.911.646s-.645-3.879-5.011-8.89c-4.361-5.01-14.382-6.141-17.453-5.979-3.07.162-14.708.647-16 .969-1.295.324-2.265-.322-2.749-.646-.485-.323-.648-1.616-2.262-1.616-1.619 0-6.467.809-10.346 1.131-3.878.324-1.294 1.455-1.294 1.455S319.99 61.53 316.921 62.312c-3.073.778-3.073 5.2-3.396 19.584-.322 14.385 1.617 24.728 2.911 25.861 1.292 1.131 45.416-1.293 47.516-1.133 2.101.162 0 0 1.939 1.133 1.942 1.131 5.982 1.453 7.921 2.1 1.941.646 1.455.97 2.262 1.777.809.809 1.457 1.293 3.879 2.264 2.425.969 2.588.646 5.659.646 3.069 0-.81-3.069-.81-3.069s8.567-.487 11.154-.325c2.586.162 0 .808.646 2.264.646 1.453 1.13 2.261 1.94 3.555.807 1.293.807 2.748.807 2.748s-4.365-.162-6.142.16c-1.778.325-3.716 3.884-3.716 3.884s-3.557-5.176-17.941-11.965c-14.385-6.787-28.285-1.777-38.631.647-10.34 2.424-22.142 4.042-39.596 5.494-17.455 1.456-31.678 6.412-44.393 5.765-12.714-.645-21.335-8.618-27.368-13.576-6.035-4.955-12.931-7.541-16.986-9.267-4.052-1.723-5.857-5.387-7.581-6.68-1.725-1.294-1.509-2.369-.862-3.233.646-.861.646-2.801.646-4.524 0-1.725 2.801-1.725 6.25-4.526 3.447-2.801.216-8.405-.863-10.775-1.077-2.371-17.671-10.774-35.342-15.3-17.669-4.527-28.228-6.034-31.893-5.819-3.665.215-8.189.646-16.808 1.939-8.622 1.294-14.008-1.939-26.722-6.68-12.716-4.741-22.413-15.516-29.526-19.826-7.11-4.309-28.013-12.931-35.126-15.947-7.11-3.017-15.084-3.664-21.551-7.111C-1.265-1.071-.188 1.73.675 7.117c.858 5.387 2.584 6.25 8.833 9.267 6.252 3.017 24.568 8.836 35.774 13.145 11.204 4.31 27.585 13.146 38.362 22.412 10.774 9.268 22.626 13.362 22.626 13.362s-4.797.431-13.684 4.954c-8.891 4.527-19.232 9.053-27.476 14.225-8.244 5.173-14.384 14.385-16.97 16.972-2.587 2.586-16.326 8.403-25.375 11.635-9.053 3.234-10.83 3.396-15.679 3.234-4.848-.163-4.686 1.614-6.305 2.748Zm548.664 2.047c.429-3.45 2.368-8.73 3.556-9.914 1.183-1.185 1.507-1.293 3.124 0 1.617 1.294 3.556 2.155 3.663 2.587.107.429-.754 3.036-1.077 3.187-.324.153-1.939 3.493-1.939 3.493s-1.078 3.555-1.078-.431c0-3.988-.754-2.047-.754-2.047s-2.046 2.261-3.341 4.201c-1.294 1.939-2.586 2.37-2.154-1.076ZM494.871 84.32l-3.681 4.689s-1.009-1.456-1.33-1.94c-.324-.487.321-2.587 1.293-4.364.969-1.78 1.454-3.071 1.454-3.071s2.102 2.584 2.264 3.071c.158.484 0 1.615 0 1.615Zm8.888 13.576c-1.132 0-4.203.486-5.173-.969-.969-1.455-1.454-2.424-1.454-2.424l6.627 1.454s1.132 1.939 0 1.939Zm9.831 44.525c-1.106 3.903-2.718 9.012-4.82 14.133-.107.257-.237.523-.351.781-1.39-.48-2.72-.937-3.953-1.353.034-.071.069-.152.101-.224 1.777-3.878 2.746-5.173 5.011-9.213 1.236-2.21 2.715-3.356 4.012-4.124Zm37.665 28.114c-.333-.06-.657-.117-1.035-.193-4.51-.886-4.003-2.75-6.287-4.305-2.283-1.56-8.715-4.229-11.108-4.946-2.395-.702-6.384-2.129-9.91-3.214-3.527-1.085-3.515.418-2.361 1.419 1.154 1.004 3.421 1.236 6.855 1.406 3.43.17 1.691 4.014 1.691 4.014a1391.857 1391.857 0 0 0-17.924-6.421c.089-.21.202-.431.285-.637 2.727-6.645 4.65-13.264 5.731-17.386 1.597-.764 4.114-1.254 5.8-1.646 2.099-.485 1.941 0 5.495 1.777 3.556 1.781 5.873 1.618 7.165 1.832 1.292.218 1.185.754 1.401 1.939.216 1.188.216 3.127.754 4.314.538 1.18 3.449 2.691 6.249 2.909 2.802.214.756.752 3.558.966 1.037.079 1.886-.274 2.624-.804.101.048.208.1.329.147 1.444.649 4.132 1.856 5.05 4.824.957 3.092-.195 7.346-3.428 12.641-.281.461-.621.911-.934 1.364Zm-51.703 11.879c8.062.75 25.971.144 28.179-.1 2.533-.271.851.994 2.153 1.548.986.413 4.63-.194 7.231-.657a60.028 60.028 0 0 1-7.702 3.854c-8.785 3.63-17.402 4.706-21.447 2.688-2.35-1.175-5.287-3.863-8.414-7.333Zm-28.261-2.447c.356-.09.724-.185 1.112-.285 4.266-1.116 7.71-2.343 10.446-3.484a72.19 72.19 0 0 0 8.994 4.193c-1.207.974-2.259 1.611-3.079 1.809-3.135.752-11.117-.202-17.473-2.233ZM143.335 81.498c.485-.733 1.779-1.864 1.779-3.157s-.485-3.395-.485-3.395 5.495 4.688 9.373 7.272c3.879 2.587 7.273 4.851 7.597 5.335.323.484-3.071 1.294-9.213-1.455-6.142-2.746-9.536-3.866-9.051-4.6Z" style="fill-rule:nonzero" transform="scale(.25597)"/></svg>