<svg viewBox="0 0 88 18" xmlns="http://www.w3.org/2000/svg" xml:space="preserve" style="fill-rule:evenodd;clip-rule:evenodd;stroke-linejoin:round;stroke-miterlimit:2"><path d="M.499-.124H.237L.195 0H.016L.27-.702h.198L.722 0H.541L.499-.124ZM.455-.256.368-.513l-.086.257h.173Z" style="fill:#fff;fill-rule:nonzero" transform="translate(.39 14.84) scale(16.402)"/><path d="M.394.007a.354.354 0 0 1-.361-.36.35.35 0 0 1 .18-.313.359.359 0 0 1 .181-.046c.066 0 .127.015.182.046a.346.346 0 0 1 .177.313.36.36 0 0 1-.178.314.359.359 0 0 1-.181.046Zm0-.156c.051.002.1-.019.135-.056a.215.215 0 0 0 .05-.148.21.21 0 0 0-.05-.148.172.172 0 0 0-.135-.056.17.17 0 0 0-.135.055.209.209 0 0 0-.051.149c0 .062.017.111.051.149a.176.176 0 0 0 .135.055Z" style="fill:#fff;fill-rule:nonzero" transform="translate(11.987 14.84) scale(16.402)"/><path d="M.23-.702v.42c0 .042.01.074.031.097.021.023.051.034.091.034s.071-.011.092-.034a.137.137 0 0 0 .032-.097v-.42h.171v.419A.266.266 0 0 1 .5-.026a.343.343 0 0 1-.151.033.33.33 0 0 1-.148-.032.242.242 0 0 1-.104-.099.306.306 0 0 1-.038-.159v-.419H.23Z" style="fill:#fff;fill-rule:nonzero" transform="translate(24.387 14.84) scale(16.402)"/><path d="M.499-.124H.237L.195 0H.016L.27-.702h.198L.722 0H.541L.499-.124ZM.455-.256.368-.513l-.086.257h.173Z" style="fill:#fff;fill-rule:nonzero" transform="translate(35.458 14.84) scale(16.402)"/><path d="M.607 0h-.07L.15-.588V0H.08v-.699h.07l.387.587v-.587h.07V0Z" style="fill:#fff;fill-rule:nonzero" transform="translate(47.055 14.84) scale(16.402)"/><path d="M.485-.166H.167L.106 0H.032l.255-.69h.079L.62 0H.546L.485-.166ZM.464-.224.326-.602l-.138.378h.276Z" style="fill:#fff;fill-rule:nonzero" transform="translate(57.814 14.84) scale(16.402)"/><path d="M.147-.699v.44c0 .069.017.121.05.154s.078.05.135.05a.178.178 0 0 0 .135-.05c.032-.033.048-.084.048-.154v-.44h.07v.439c0 .089-.023.155-.07.2a.255.255 0 0 1-.184.067.254.254 0 0 1-.183-.067C.101-.105.077-.171.077-.26v-.439h.07Z" style="fill:#fff;fill-rule:nonzero" transform="translate(68.016 14.84) scale(16.402)"/><path d="M.489-.699v.058H.295V0h-.07v-.641H.03v-.058h.459Z" style="fill:#fff;fill-rule:nonzero" transform="translate(78.366 14.84) scale(16.402)"/><path d="M125.965 769.537 122 773.449l-.232-.236.681 1.219c96.372-44.253 165.645-13.072 232.505 17.023 90.585 40.774 176.779 79.573 319.387-71.274l-1.101-1.774c-92.12 28.093-162.624 13.879-231.167.061-91.72-18.492-179.949-36.279-311.63 48.169" style="fill:#009de8" transform="matrix(-.0268 0 0 .0268 33.72 -4.498)"/></svg>