<svg viewBox="0 0 86 25" xmlns="http://www.w3.org/2000/svg" xml:space="preserve" style="fill-rule:evenodd;clip-rule:evenodd;stroke-linejoin:round;stroke-miterlimit:2"><g opacity=".3"><path d="M10.29 12.52H5.993l-.689 2.034H2.368L6.534 3.04h3.247l4.167 11.514h-2.969l-.689-2.034Zm-.722-2.165L8.141 6.14l-1.41 4.215h2.837ZM20.164 14.669c-1.083 0-2.075-.251-2.977-.754a5.648 5.648 0 0 1-2.149-2.108c-.53-.902-.795-1.916-.795-3.043 0-1.126.265-2.137.795-3.034a5.663 5.663 0 0 1 2.149-2.1c.902-.503 1.894-.754 2.977-.754s2.075.251 2.977.754a5.536 5.536 0 0 1 2.132 2.1c.52.897.779 1.908.779 3.034 0 1.127-.262 2.141-.787 3.043a5.604 5.604 0 0 1-2.132 2.108c-.897.503-1.886.754-2.969.754Zm0-2.559c.918 0 1.654-.306 2.206-.918.552-.613.828-1.422.828-2.428 0-1.017-.276-1.829-.828-2.435-.552-.607-1.288-.911-2.206-.911-.929 0-1.67.301-2.222.902-.553.602-.829 1.416-.829 2.444 0 1.017.276 1.829.829 2.436.552.607 1.293.91 2.222.91ZM29.874 3.04v6.889c0 .689.169 1.219.508 1.591.339.372.837.558 1.493.558.656 0 1.159-.186 1.509-.558.35-.372.525-.902.525-1.591V3.04h2.805v6.872c0 1.028-.219 1.898-.656 2.608a4.208 4.208 0 0 1-1.764 1.608c-.738.361-1.561.541-2.468.541-.908 0-1.72-.178-2.436-.533a3.97 3.97 0 0 1-1.697-1.607c-.416-.717-.624-1.589-.624-2.617V3.04h2.805ZM45.358 12.52H41.06l-.689 2.034h-2.936L41.601 3.04h3.248l4.166 11.514h-2.969l-.688-2.034Zm-.722-2.165L43.209 6.14l-1.411 4.215h2.838ZM58.725 14.554h-1.148L51.229 4.91v9.644h-1.148V3.089h1.148l6.348 9.628V3.089h1.148v11.465ZM67.484 11.831h-5.216l-1 2.723h-1.214l4.182-11.317h1.296l4.166 11.317h-1.214l-1-2.723Zm-.345-.951-2.263-6.2-2.264 6.2h4.527ZM72.142 3.089v7.217c0 1.137.271 1.979.812 2.526.541.547 1.282.82 2.222.82.941 0 1.676-.271 2.207-.812.53-.541.795-1.386.795-2.534V3.089h1.148v7.201c0 1.454-.385 2.547-1.156 3.28-.771.733-1.774 1.099-3.01 1.099-1.236 0-2.239-.366-3.01-1.099-.771-.733-1.156-1.826-1.156-3.28V3.089h1.148ZM88.101 3.089v.952h-3.182v10.513h-1.148V4.041h-3.198v-.952h7.528Z" style="fill:#fff;fill-rule:nonzero" transform="translate(-2.368 -1.19)"/><path d="M125.965 769.537 122 773.449l-.232-.236.681 1.219c96.372-44.253 165.645-13.072 232.505 17.023 90.585 40.774 176.779 79.573 319.387-71.274l-1.101-1.774c-92.12 28.093-162.624 13.879-231.167.061-91.72-18.492-179.949-36.279-311.63 48.169" style="fill:#fff" transform="matrix(-.0268 0 0 .0268 33.066 -5.973)"/></g><g opacity=".3"><path d="M2.25 17.692v-3.158h1.184c.241 0 .435.032.581.096.145.064.26.162.342.295a.776.776 0 0 1 .124.417.717.717 0 0 1-.11.381.793.793 0 0 1-.331.289c.19.056.337.151.44.286a.766.766 0 0 1 .154.478.917.917 0 0 1-.325.707.96.96 0 0 1-.346.156 2.11 2.11 0 0 1-.509.053H2.25Zm.417-1.831h.683c.185 0 .318-.012.399-.037a.442.442 0 0 0 .24-.157.452.452 0 0 0 .081-.276.5.5 0 0 0-.076-.276.378.378 0 0 0-.215-.164c-.093-.03-.254-.044-.48-.044h-.632v.954Zm0 1.458h.787c.135 0 .229-.005.284-.015a.677.677 0 0 0 .241-.086.457.457 0 0 0 .16-.176.553.553 0 0 0 .062-.266c0-.117-.03-.22-.09-.307a.484.484 0 0 0-.251-.183 1.566 1.566 0 0 0-.462-.052h-.731v1.085ZM5.082 16.154c0-.524.141-.935.422-1.231.282-.297.645-.445 1.09-.445.292 0 .554.07.788.209.235.139.413.333.536.583a1.9 1.9 0 0 1 .184.847c0 .32-.065.607-.194.86a1.325 1.325 0 0 1-.549.574 1.57 1.57 0 0 1-.767.195 1.49 1.49 0 0 1-.797-.216 1.382 1.382 0 0 1-.532-.588 1.775 1.775 0 0 1-.181-.788Zm.431.006c0 .381.102.681.307.9.204.219.461.328.77.328.314 0 .573-.111.776-.332.203-.221.305-.535.305-.941 0-.257-.043-.481-.13-.673a1.005 1.005 0 0 0-.945-.604c-.296 0-.55.101-.763.305-.214.203-.32.542-.32 1.017ZM8.294 17.692l1.212-3.158h.45l1.293 3.158h-.476l-.369-.957h-1.32l-.347.957h-.443Zm.911-1.297h1.07l-.329-.874a8.123 8.123 0 0 1-.224-.655 4.06 4.06 0 0 1-.171.603l-.346.926ZM12.059 17.692v-2.785h-1.041v-.373h2.503v.373h-1.044v2.785h-.418ZM16.224 17.692v-2.785h-1.04v-.373h2.502v.373h-1.044v2.785h-.418ZM18.122 17.692v-3.158h1.4c.281 0 .495.028.641.085a.704.704 0 0 1 .352.301.9.9 0 0 1 .131.476.794.794 0 0 1-.218.566c-.145.154-.369.251-.672.293.111.053.195.106.252.157.122.112.238.252.347.42l.549.86h-.525l-.418-.657a5.73 5.73 0 0 0-.302-.435.922.922 0 0 0-.212-.211.59.59 0 0 0-.19-.084 1.269 1.269 0 0 0-.233-.015h-.485v1.402h-.417Zm.417-1.764h.899c.191 0 .34-.02.448-.06a.474.474 0 0 0 .245-.189.512.512 0 0 0 .084-.283.473.473 0 0 0-.162-.369c-.109-.096-.28-.144-.514-.144h-1v1.045ZM21.372 14.534h.418v3.158h-.418zM22.526 17.692v-3.158h1.192c.209 0 .369.01.48.03a.95.95 0 0 1 .39.148.768.768 0 0 1 .253.305c.064.13.096.274.096.43a.97.97 0 0 1-.257.682c-.171.186-.479.279-.926.279h-.81v1.284h-.418Zm.418-1.657h.817c.27 0 .461-.05.575-.15a.54.54 0 0 0 .17-.425.575.575 0 0 0-.1-.339.469.469 0 0 0-.264-.186 1.767 1.767 0 0 0-.39-.028h-.808v1.128ZM25.327 16.677l.394-.034a.869.869 0 0 0 .13.389.707.707 0 0 0 .318.245c.143.063.305.094.484.094.16 0 .3-.024.423-.071a.595.595 0 0 0 .272-.195.451.451 0 0 0 .089-.271.406.406 0 0 0-.086-.259.632.632 0 0 0-.284-.186 5.408 5.408 0 0 0-.562-.154c-.29-.07-.494-.136-.61-.197a.854.854 0 0 1-.337-.294.726.726 0 0 1-.111-.394.8.8 0 0 1 .136-.447.84.84 0 0 1 .396-.315c.174-.072.367-.108.58-.108.234 0 .44.038.619.113a.897.897 0 0 1 .412.333.948.948 0 0 1 .155.498l-.4.03c-.022-.2-.095-.351-.219-.453-.124-.101-.308-.152-.55-.152-.253 0-.437.046-.553.138a.42.42 0 0 0-.173.335c0 .114.041.207.123.28.08.074.29.149.63.226.339.076.572.143.699.201a.966.966 0 0 1 .407.322.79.79 0 0 1 .131.449.861.861 0 0 1-.144.475.952.952 0 0 1-.415.347c-.18.082-.383.124-.608.124-.286 0-.525-.042-.719-.125a1.013 1.013 0 0 1-.454-.376 1.059 1.059 0 0 1-.173-.568ZM31.796 17.319a1.321 1.321 0 0 1-.417.32 1.135 1.135 0 0 1-.489.107c-.323 0-.58-.11-.769-.328a.89.89 0 0 1-.231-.596c0-.196.063-.372.189-.529.125-.157.313-.296.563-.415a1.886 1.886 0 0 1-.284-.398.657.657 0 0 1 .152-.79.784.784 0 0 1 .561-.21.73.73 0 0 1 .528.198.635.635 0 0 1 .206.476c0 .301-.199.557-.597.769l.567.722a1.78 1.78 0 0 0 .151-.439l.403.086a2.22 2.22 0 0 1-.28.68c.145.193.309.354.493.485l-.261.308a2.285 2.285 0 0 1-.485-.446Zm-.788-1.646c.168-.099.277-.185.326-.26a.436.436 0 0 0 .075-.248.356.356 0 0 0-.103-.264.346.346 0 0 0-.255-.102.36.36 0 0 0-.261.101.332.332 0 0 0-.105.248c0 .049.013.1.038.154a.797.797 0 0 0 .113.171l.172.2Zm.545 1.34-.711-.881c-.209.125-.351.241-.424.348a.563.563 0 0 0-.11.318c0 .128.051.26.153.398a.506.506 0 0 0 .433.207.712.712 0 0 0 .361-.109.874.874 0 0 0 .298-.281ZM34.622 17.692v-3.158h2.283v.373H35.04v.967h1.747v.37H35.04v1.075h1.938v.373h-2.356ZM37.235 17.692l1.221-1.646-1.077-1.512h.498l.573.81c.119.168.203.297.254.388.07-.115.153-.235.25-.36l.635-.838h.454l-1.109 1.488 1.196 1.67h-.517l-.795-1.127a4.325 4.325 0 0 1-.138-.211 5.06 5.06 0 0 1-.151.237l-.792 1.101h-.502ZM42.751 16.585l.418.105c-.088.343-.245.605-.473.785-.228.18-.506.271-.835.271-.34 0-.617-.07-.83-.208a1.31 1.31 0 0 1-.487-.602 2.155 2.155 0 0 1-.167-.847c0-.329.063-.615.189-.86.125-.245.304-.431.536-.558.232-.127.487-.191.766-.191a1.3 1.3 0 0 1 .797.241c.215.161.365.387.45.679l-.411.097c-.074-.23-.18-.397-.319-.502a.85.85 0 0 0-.526-.157c-.242 0-.445.058-.608.174a.926.926 0 0 0-.344.469 1.886 1.886 0 0 0-.099.606c0 .269.039.503.118.703.078.201.199.35.365.449.165.1.344.149.536.149a.897.897 0 0 0 .594-.202c.163-.135.273-.336.33-.601ZM45.756 14.534h.418v1.824c0 .318-.036.57-.108.756a.92.92 0 0 1-.389.456c-.187.117-.433.176-.738.176-.295 0-.537-.051-.725-.153a.87.87 0 0 1-.403-.443c-.081-.193-.121-.457-.121-.792v-1.824h.418v1.822c0 .275.025.477.076.607a.58.58 0 0 0 .263.3c.124.07.276.106.456.106.307 0 .526-.07.657-.209.13-.14.196-.407.196-.804v-1.822ZM46.876 17.692v-3.158h1.4c.281 0 .495.028.642.085a.706.706 0 0 1 .351.301.9.9 0 0 1 .131.476.793.793 0 0 1-.217.566c-.145.154-.369.251-.672.293.11.053.194.106.252.157.122.112.237.252.346.42l.55.86h-.526l-.418-.657a5.773 5.773 0 0 0-.301-.435.942.942 0 0 0-.212-.211.594.594 0 0 0-.191-.084 1.261 1.261 0 0 0-.233-.015h-.484v1.402h-.418Zm.418-1.764h.898c.191 0 .34-.02.448-.06a.47.47 0 0 0 .245-.189.512.512 0 0 0 .084-.283.473.473 0 0 0-.162-.369c-.109-.096-.28-.144-.514-.144h-.999v1.045ZM49.913 16.677l.394-.034a.881.881 0 0 0 .13.389.712.712 0 0 0 .318.245c.144.063.305.094.485.094.159 0 .3-.024.422-.071a.59.59 0 0 0 .272-.195.452.452 0 0 0 .09-.271.412.412 0 0 0-.086-.259.642.642 0 0 0-.285-.186 5.331 5.331 0 0 0-.562-.154c-.29-.07-.493-.136-.609-.197a.857.857 0 0 1-.338-.294.725.725 0 0 1-.11-.394c0-.159.045-.308.135-.447a.847.847 0 0 1 .397-.315c.173-.072.366-.108.579-.108.234 0 .44.038.619.113a.905.905 0 0 1 .568.831l-.401.03c-.021-.2-.094-.351-.218-.453-.125-.101-.308-.152-.551-.152-.253 0-.437.046-.552.138a.418.418 0 0 0-.174.335c0 .114.041.207.123.28.08.074.29.149.63.226.34.076.573.143.699.201.184.085.32.192.407.322.088.13.132.28.132.449a.862.862 0 0 1-.145.475.95.95 0 0 1-.414.347 1.456 1.456 0 0 1-.609.124c-.286 0-.525-.042-.718-.125a1.016 1.016 0 0 1-.455-.376 1.067 1.067 0 0 1-.173-.568ZM53.068 14.534h.418v3.158h-.418zM54.096 16.154c0-.524.141-.935.422-1.231.281-.297.645-.445 1.09-.445.291 0 .554.07.788.209.234.139.413.333.536.583a1.9 1.9 0 0 1 .184.847c0 .32-.065.607-.194.86a1.325 1.325 0 0 1-.549.574 1.57 1.57 0 0 1-.767.195 1.49 1.49 0 0 1-.797-.216 1.376 1.376 0 0 1-.532-.588 1.775 1.775 0 0 1-.181-.788Zm.431.006c0 .381.102.681.307.9.204.219.461.328.77.328.314 0 .573-.111.776-.332.203-.221.305-.535.305-.941 0-.257-.044-.481-.13-.673a1 1 0 0 0-.382-.446 1.037 1.037 0 0 0-.563-.158c-.296 0-.55.101-.763.305-.214.203-.32.542-.32 1.017ZM57.65 17.692v-3.158h.429l1.658 2.479v-2.479h.401v3.158h-.429l-1.658-2.482v2.482h-.401ZM60.698 16.677l.394-.034a.881.881 0 0 0 .13.389.707.707 0 0 0 .318.245c.144.063.305.094.485.094.159 0 .3-.024.422-.071a.59.59 0 0 0 .272-.195.452.452 0 0 0 .09-.271.407.407 0 0 0-.087-.259.632.632 0 0 0-.284-.186 5.408 5.408 0 0 0-.562-.154c-.29-.07-.493-.136-.61-.197a.86.86 0 0 1-.337-.294.726.726 0 0 1-.111-.394c0-.159.046-.308.136-.447a.85.85 0 0 1 .396-.315c.174-.072.367-.108.58-.108.234 0 .44.038.619.113a.905.905 0 0 1 .413.333.966.966 0 0 1 .155.498l-.401.03c-.022-.2-.094-.351-.219-.453-.124-.101-.307-.152-.55-.152-.253 0-.437.046-.552.138a.418.418 0 0 0-.174.335c0 .114.041.207.123.28.08.074.29.149.63.226.34.076.573.143.699.201a.96.96 0 0 1 .407.322c.088.13.131.28.131.449a.861.861 0 0 1-.144.475.946.946 0 0 1-.415.347c-.18.082-.383.124-.608.124-.286 0-.525-.042-.718-.125a1.01 1.01 0 0 1-.455-.376 1.059 1.059 0 0 1-.173-.568ZM67.168 17.319a1.325 1.325 0 0 1-.418.32 1.135 1.135 0 0 1-.489.107c-.323 0-.58-.11-.769-.328a.89.89 0 0 1-.231-.596c0-.196.063-.372.189-.529.126-.157.313-.296.563-.415a1.886 1.886 0 0 1-.284-.398.657.657 0 0 1 .152-.79.784.784 0 0 1 .561-.21c.215 0 .391.066.529.198a.637.637 0 0 1 .205.476c0 .301-.199.557-.596.769l.566.722a1.78 1.78 0 0 0 .151-.439l.403.086a2.22 2.22 0 0 1-.28.68c.145.193.309.354.493.485l-.261.308a2.26 2.26 0 0 1-.484-.446Zm-.789-1.646c.168-.099.277-.185.327-.26a.443.443 0 0 0 .074-.248.359.359 0 0 0-.102-.264.35.35 0 0 0-.256-.102.361.361 0 0 0-.261.101.332.332 0 0 0-.105.248c0 .049.013.1.038.154a.797.797 0 0 0 .113.171l.172.2Zm.545 1.34-.711-.881c-.209.125-.351.241-.424.348a.563.563 0 0 0-.11.318c0 .128.051.26.153.398a.508.508 0 0 0 .433.207.71.71 0 0 0 .361-.109.865.865 0 0 0 .298-.281ZM69.985 17.692v-3.158h1.087c.246 0 .433.015.562.045.181.042.336.117.464.226.166.141.291.321.373.54.083.219.124.469.124.751 0 .239-.028.452-.084.637a1.561 1.561 0 0 1-.215.46 1.169 1.169 0 0 1-.288.287 1.19 1.19 0 0 1-.377.158 2.142 2.142 0 0 1-.507.054h-1.139Zm.417-.373h.675c.208 0 .371-.019.49-.058a.696.696 0 0 0 .283-.164.992.992 0 0 0 .231-.399c.056-.168.083-.37.083-.609 0-.33-.054-.584-.162-.761a.82.82 0 0 0-.396-.357c-.112-.043-.292-.064-.54-.064h-.664v2.412ZM73.241 14.534h.418v3.158h-.418zM75.298 17.692l-1.223-3.158h.452l.821 2.294c.066.184.121.356.166.517.049-.172.105-.345.17-.517l.853-2.294h.426l-1.236 3.158h-.429ZM77.409 14.534h.418v3.158h-.418zM78.559 17.692v-3.158h.429l1.659 2.479v-2.479h.4v3.158h-.428L78.96 15.21v2.482h-.401ZM83.227 16.453v-.37l1.338-.002v1.171a2.37 2.37 0 0 1-.636.37 1.895 1.895 0 0 1-1.517-.076 1.31 1.31 0 0 1-.574-.576 1.816 1.816 0 0 1-.194-.842c0-.307.064-.594.193-.861a1.28 1.28 0 0 1 .554-.593c.242-.129.519-.194.834-.194.228 0 .435.037.619.111.185.074.329.177.434.309.105.132.185.305.239.517l-.377.104a1.171 1.171 0 0 0-.176-.38.732.732 0 0 0-.302-.22 1.095 1.095 0 0 0-.435-.083c-.191 0-.356.029-.495.087a.921.921 0 0 0-.337.229 1.096 1.096 0 0 0-.2.313c-.08.195-.12.407-.12.635 0 .282.048.517.145.707.097.189.238.33.423.422.186.092.382.138.591.138.18 0 .357-.035.529-.105.173-.069.303-.144.392-.223v-.588h-.928Z" style="fill:#fff;fill-rule:nonzero" transform="translate(5.65 6.83) scale(.85702)"/></g></svg>