<svg viewBox="0 0 512 512" xmlns="http://www.w3.org/2000/svg" xml:space="preserve" style="fill-rule:evenodd;clip-rule:evenodd;stroke-linejoin:round;stroke-miterlimit:2"><path d="M256 77.654c98.497 0 178.346 79.849 178.346 178.346S354.497 434.346 256 434.346 77.654 354.497 77.654 256 157.503 77.654 256 77.654Zm0 43.044c74.725 0 135.302 60.577 135.302 135.302S330.725 391.302 256 391.302 120.698 330.725 120.698 256 181.275 120.698 256 120.698Z" style="fill:#dff2fd"/><circle cx="256.005" cy="256.005" r="31.996" style="fill:#dff2fd"/><path style="fill:#dff2fd" d="M236.375 50.698h39.251v28.024h-39.251zM275.625 133.629v11.181h-39.25v-11.181a124.835 124.835 0 0 1 39.25 0ZM371.802 211.803l-9.696 5.597-19.625-33.991 9.672-5.584a123.822 123.822 0 0 1 19.649 33.978ZM352.153 334.175l-9.672-5.584 19.625-33.991 9.696 5.597a123.837 123.837 0 0 1-19.649 33.978ZM236.375 378.371V367.19h39.25v11.181a124.835 124.835 0 0 1-39.25 0ZM140.198 300.195l9.696-5.595 19.625 33.991-9.672 5.584a123.783 123.783 0 0 1-19.649-33.98ZM159.847 177.825l9.672 5.584-19.625 33.991-9.696-5.597a123.837 123.837 0 0 1 19.649-33.978Z"/><path d="M267.758 53.543h-23.517c-14.852-71.391 38.369-71.391 23.517 0ZM437.212 164.954l-11.759-20.367c54.401-48.557 81.012-2.466 11.759 20.367ZM425.454 367.411l11.758-20.367c69.253 22.834 42.642 68.926-11.758 20.367ZM244.242 458.457h23.517c14.852 71.391-38.369 71.391-23.517 0ZM74.788 347.046l11.759 20.367c-54.401 48.557-81.012 2.466-11.759-20.367ZM86.546 144.589l-11.758 20.367C5.535 142.122 32.146 96.03 86.546 144.589ZM237.575 216.72c-7.023-22.257 8.567-40.506 5.688-74.755h25.474c-2.879 34.249 12.711 52.498 5.688 74.755a43.207 43.207 0 0 0-18.425-4.1 43.207 43.207 0 0 0-18.425 4.1ZM280.801 220.407c15.763-17.215 39.365-12.835 67.587-32.455l12.738 22.062c-31.104 14.631-39.11 37.261-61.903 42.304-1.111-13.208-8.137-24.73-18.422-31.911ZM299.223 259.682c22.793 5.042 30.799 27.673 61.903 42.304l-12.738 22.062c-28.222-19.62-51.823-15.24-67.587-32.457 10.284-7.179 17.311-18.701 18.422-31.909ZM274.425 295.28c7.024 22.257-8.567 40.506-5.688 74.755h-25.474c2.879-34.249-12.711-52.498-5.688-74.755a43.207 43.207 0 0 0 18.425 4.1 43.207 43.207 0 0 0 18.425-4.1ZM231.199 291.593c-15.763 17.215-39.365 12.835-67.587 32.455l-12.738-22.062c31.104-14.631 39.11-37.261 61.903-42.304 1.111 13.208 8.137 24.73 18.422 31.911ZM212.777 252.318c-22.793-5.042-30.799-27.673-61.903-42.304l12.738-22.062c28.222 19.62 51.823 15.24 67.587 32.457-10.284 7.179-17.311 18.701-18.422 31.909Z" style="fill:#dff2fd"/><path d="m419.34 184.356-19.625-33.991 24.269-14.011 19.625 33.991-24.269 14.011ZM399.715 361.635l19.625-33.991 24.269 14.011-19.625 33.991-24.269-14.011ZM236.375 433.278h39.251v28.024h-39.251zM92.66 327.644l19.625 33.991-24.269 14.011-19.625-33.991 24.269-14.011ZM112.285 150.365 92.66 184.356l-24.269-14.011 19.625-33.991 24.269 14.011Z" style="fill:#dff2fd"/></svg>